# xmcd
#
# Track frame offsets:
#	150
#	14613
#	27070
#	40600
#	58234
#	71103
#	84242
#	102161
#	119707
#	139290
#	153214
#	171275
#	183930
#
# Disc length: 2670 seconds
#
# Revision: 4
# Processed by: cddbd v1.5.1PL0 Copyright (c) Steve Scherf et al.
# Submitted via: EasyCDDAExtractor 7.1.1.1
#
DISCID=ad0a6c0d
DTITLE=MasterShield Records - Refill
DYEAR=2002
DGENRE=Bluegrass
TTITLE0=A Long Way to Virginia
TTITLE1=Refill
TTITLE2=Are You the One
TTITLE3=Yours Truly
TTITLE4=Seed of Love
TTITLE5=Should've Took That Train
TTITLE6=This Ole Guitar
TTITLE7=Home Is Where the Heart Is
TTITLE8=Victim of Your Love
TTITLE9=Heading West
TTITLE10=Ghost of a Chance
TTITLE11=Paying for It All
TTITLE12=There's a Miracle Everywhere You Go
EXTD=
EXTT0=
EXTT1=
EXTT2=
EXTT3=
EXTT4=
EXTT5=
EXTT6=
EXTT7=
EXTT8=
EXTT9=
EXTT10=
EXTT11=
EXTT12=
PLAYORDER=
